<svg width="261" height="247" viewBox="0 0 261 247" fill="none" xmlns="http://www.w3.org/2000/svg">
<path d="M165.921 33.4286C165.921 51.8906 150.48 66.8571 131.432 66.8571C112.384 66.8571 96.9429 51.8906 96.9429 33.4286C96.9429 14.9665 112.384 0 131.432 0C150.48 0 165.921 14.9665 165.921 33.4286Z" fill="#001740"/>
<path d="M67.1143 92.5525C63.2063 92.9856 59.8742 95.3565 56.5367 97.2461C47.6805 102.832 38.9611 108.874 31.7685 116.532C29.122 119.526 26.2638 123.276 26.9885 127.508C28.0882 131.857 31.551 135.053 34.603 138.144C40.7024 143.87 47.2837 149.084 54.1021 153.932C57.4372 156.082 60.9348 158.647 65.057 158.782C68.5473 158.939 72.1935 156.788 73.0182 153.272C74.1224 149.703 72.5981 145.769 69.7254 143.483C64.5724 139.522 58.988 136.122 54.0352 131.893C51.7615 129.959 49.2468 127.97 47.2589 125.905C54.1839 119.908 61.5911 114.464 69.4881 109.804C72.4675 108.071 75.4654 105.53 75.8495 101.889C76.4074 98.4001 74.6834 94.4289 71.1961 93.1981C69.9038 92.6946 68.4963 92.5049 67.1143 92.5525Z" fill="#001740"/>
<path d="M110.742 86.1166C105.984 86.2753 102.45 90.0275 100.292 93.8961C94.4431 104.382 93.9095 105.376 90.0064 116.701C85.2623 130.466 82.3252 154.464 79.5425 168.744C78.9811 172.626 77.8532 176.634 78.7843 180.542C79.8675 184.841 84.5126 187.739 88.874 186.915C92.0384 186.552 94.4333 184.019 95.5257 181.167C97.1995 177.745 97.2055 173.839 97.9684 170.168C99.9776 156.812 103.404 143.686 107.906 130.954C108.369 129.698 109.014 127.897 109.59 126.445C112.106 119.781 115.275 113.276 118.438 107.053C120.362 102.988 122.828 99.0876 123.993 94.7107C124.884 89.777 115.483 85.9584 110.742 86.1166Z" fill="#001740"/>
<path d="M99.9142 88.8097L96.4295 93.5778C95.7709 94.6808 91.909 95.0091 90.7391 95.1955C89.5692 95.3819 89.3799 95.4345 86.7188 95.6196C82.229 95.9318 81.7165 96.0947 79.6108 97.8783C78.3627 98.9354 77.3202 99.9588 77.2941 100.152C77.268 100.346 78.8865 101.19 80.891 102.028C84.405 103.497 84.6802 103.528 88.5697 102.896C90.7883 102.536 93.4878 101.828 94.5684 101.324C96.0855 100.616 96.587 100.566 96.7697 101.105C96.9 101.49 97.5971 102.025 98.3189 102.295C99.4722 102.726 99.5717 102.99 99.139 104.474C98.8682 105.403 97.8516 107.53 96.8797 109.201C95.5348 111.513 95.0167 113.226 94.7114 116.37C94.4284 119.285 94.4951 120.502 94.9382 120.502C96.8512 120.502 100.893 118.538 102.65 116.755C104.565 114.812 107.552 109.73 107.552 108.415C107.552 108.065 108.57 107.805 109.937 107.805C113.656 107.804 117.241 108.36 122.576 103.619C123.292 102.983 124.425 99.6909 125.192 98.9567L131.005 93.3929L138.079 96.538C143.373 98.8921 145.153 99.9356 145.153 100.688C145.153 101.317 125.048 104.977 128.651 107.643C128.181 84.867 118.049 106.775 110.291 124.088L144.765 155.509L159.256 161.377C162.077 162.731 168.201 166.128 172.866 168.927C190.125 179.278 189.693 179.141 192.284 175.168C193.306 173.603 195.28 171.465 196.671 170.422C200.854 167.279 203.559 166.728 215.304 166.614C224.712 166.523 226.002 166.393 229.05 165.223C238.738 161.505 244.734 149.362 243.625 135.704C242.786 125.38 242.933 123.287 244.753 119.751C246.278 116.787 252.955 109.461 254.132 109.461C254.419 109.461 254.488 109.195 254.283 108.87C253.621 107.816 242.954 110.131 239.335 112.113C238.31 112.675 235.703 114.106 233.543 115.294C229.672 117.422 227.982 117.286 223.722 117.458C219.843 117.614 217.169 117.243 212.396 115.659C205.038 113.218 197.282 109.763 181.632 101.953C163.192 92.7513 158.906 90.9108 150.483 88.5764C142.622 86.3972 138.979 85.9987 127.194 86.028C118.415 86.0498 121.115 86.2967 117.388 85.1965C113.662 84.0964 104.065 83.1298 99.9142 88.8097ZM120.827 89.3263C125.432 93.1855 124.18 94.5289 121.923 99.1718C119.199 101.029 100.494 100.81 100.225 94.037C101.315 92.2818 101.808 91.4927 103.299 89.8782C108.631 84.1038 114.91 85.9921 120.827 89.3263Z" fill="#287BBB"/>
<path d="M192.284 175.169C193.306 173.603 195.28 171.465 196.671 170.422C200.854 167.279 203.559 166.728 215.304 166.615C224.712 166.524 226.002 166.394 229.05 165.224C238.738 161.506 244.734 149.362 243.625 135.704C242.786 125.38 242.933 123.287 244.753 119.751C246.278 116.787 252.955 109.461 254.132 109.461C254.419 109.461 254.488 109.195 254.283 108.87C245.639 110.041 235.26 117.385 231.877 120.642C228.005 124.368 224.662 131.916 220.118 135.516C213.733 140.575 201.171 139.675 194.237 131.923C189.077 126.155 183.216 108.093 166.266 100.846C153.657 95.4555 132.825 89.5494 128.805 94.1185C127.48 95.1981 126.634 95.7295 125.371 98.8491C122.448 106.068 120.145 103.774 118.126 106.749C114.561 111.999 110.291 124.088 110.291 124.088L144.765 155.509L159.256 161.377C162.077 162.731 168.201 166.128 172.866 168.927C190.125 179.278 189.693 179.141 192.284 175.169Z" fill="#226AA0"/>
<path d="M133.653 92.5452C128.858 92.4549 124.595 96.9445 125.078 101.726C125.352 106.036 129.168 109.002 132.867 110.572C140.225 114.089 147.916 117.031 154.671 121.672C156.06 122.593 157.423 123.553 158.741 124.574C152.751 131.098 145.917 136.944 138.128 141.237C136.854 141.942 135.079 142.908 133.612 143.713C130.591 145.16 127.369 147.256 126.588 150.737C125.322 155.513 129.25 160.924 134.283 160.904C139.237 160.773 143.694 158.21 147.912 155.86C156.531 150.748 164.292 144.27 171.296 137.139C174.784 133.358 178.502 129.226 179.408 123.993C180.037 119.421 176.818 115.499 173.59 112.665C166.66 106.851 158.72 102.328 150.553 98.4748C145.73 96.3241 140.86 94.1771 135.765 92.7519C135.068 92.6182 134.364 92.5308 133.653 92.5452Z" fill="#001740"/>
<path d="M0 220.071C0 205.199 12.1027 193.143 27.0321 193.143H233.968C248.897 193.143 261 205.199 261 220.071C261 234.944 248.897 247 233.968 247H27.0321C12.1027 247 0 234.944 0 220.071Z" fill="#001740"/>
<path d="M158.464 193.143H233.968C248.897 193.143 261 205.199 261 220.071C261 234.944 248.897 247 233.968 247H158.464V193.143Z" fill="#287BBB"/>
<path d="M28.5702 236.321C25.0591 236.321 22.0141 235.656 19.4352 234.325C16.8562 232.994 14.8832 231.075 13.516 228.568C12.1489 226.061 11.4653 223.089 11.4653 219.654C11.4653 216.218 12.1489 213.246 13.516 210.739C14.8832 208.201 16.8407 206.267 19.3885 204.936C21.9675 203.574 24.9969 202.893 28.4769 202.893C31.3666 202.893 34.0387 203.388 36.4934 204.379C38.948 205.369 40.7657 206.684 41.9464 208.325C42.3193 208.82 42.5057 209.331 42.5057 209.857C42.5057 210.631 42.0862 211.327 41.2473 211.946C40.8744 212.225 40.4084 212.364 39.8491 212.364C39.383 212.364 38.9169 212.271 38.4509 212.086C37.9848 211.869 37.5964 211.575 37.2857 211.204C36.2293 209.996 35.0019 209.13 33.6037 208.604C32.2055 208.046 30.4966 207.768 28.4769 207.768C25.0902 207.768 22.4491 208.82 20.5537 210.925C18.6584 212.999 17.7107 215.908 17.7107 219.654C17.7107 223.368 18.6584 226.262 20.5537 228.336C22.4802 230.409 25.1523 231.446 28.5702 231.446C32.4852 231.446 35.6078 230.301 37.9382 228.011C38.9014 227.113 39.7869 226.664 40.5948 226.664C41.1541 226.664 41.6668 226.85 42.1328 227.221C42.8475 227.84 43.2048 228.521 43.2048 229.264C43.2048 229.821 43.0028 230.363 42.5989 230.889C41.2628 232.592 39.3519 233.923 36.8662 234.882C34.4116 235.842 31.6462 236.321 28.5702 236.321Z" fill="#FCFCFC"/>
<path d="M64.9441 236.321C61.3088 236.321 58.1705 235.625 55.5295 234.232C52.9195 232.808 50.9309 230.843 49.5638 228.336C48.1966 225.798 47.513 222.888 47.513 219.607C47.513 216.326 48.1966 213.432 49.5638 210.925C50.9309 208.387 52.9195 206.421 55.5295 205.029C58.1705 203.605 61.3088 202.893 64.9441 202.893C68.5795 202.893 71.7021 203.605 74.3122 205.029C76.9532 206.421 78.9573 208.387 80.3245 210.925C81.6916 213.432 82.3752 216.326 82.3752 219.607C82.3752 222.888 81.6916 225.798 80.3245 228.336C78.9573 230.843 76.9532 232.808 74.3122 234.232C71.7021 235.625 68.5795 236.321 64.9441 236.321ZM64.9441 231.446C68.4863 231.446 71.2361 230.394 73.1936 228.289C75.1511 226.154 76.1298 223.259 76.1298 219.607C76.1298 215.924 75.1045 213.03 73.0538 210.925C71.0341 208.82 68.1755 207.768 64.478 207.768C61.0913 207.768 58.4502 208.851 56.5548 211.018C54.6905 213.154 53.7584 216.017 53.7584 219.607C53.7584 223.259 54.7372 226.154 56.6947 228.289C58.6522 230.394 61.402 231.446 64.9441 231.446Z" fill="#FCFCFC"/>
<path d="M94.579 235.857C92.2175 235.857 90.3843 235.238 89.0793 234C87.7743 232.762 87.1218 231.029 87.1218 228.8V210.229C87.1218 208.062 87.7433 206.375 88.9861 205.168C90.26 203.961 92.0156 203.357 94.2527 203.357H100.778C104.351 203.357 107.443 204.007 110.053 205.307C112.663 206.607 114.651 208.48 116.018 210.925C117.416 213.37 118.116 216.28 118.116 219.654C118.116 223.027 117.416 225.937 116.018 228.382C114.651 230.796 112.663 232.654 110.053 233.954C107.474 235.223 104.382 235.857 100.778 235.857H94.579ZM100.312 231.075C104.196 231.075 107.085 230.146 108.981 228.289C110.876 226.401 111.824 223.523 111.824 219.654C111.824 215.784 110.86 212.906 108.934 211.018C107.039 209.099 104.165 208.139 100.312 208.139H95.3247C94.7033 208.139 94.2061 208.34 93.8333 208.743C93.4915 209.145 93.3206 209.702 93.3206 210.414V228.8C93.3206 229.512 93.4915 230.069 93.8333 230.471C94.2061 230.874 94.7033 231.075 95.3247 231.075H100.312Z" fill="#FCFCFC"/>
<path d="M130.308 235.857C127.947 235.857 126.113 235.238 124.808 234C123.503 232.762 122.851 231.029 122.851 228.8V210.229C122.851 208.062 123.472 206.375 124.715 205.168C125.989 203.961 127.745 203.357 129.982 203.357H144.477C145.409 203.357 146.123 203.574 146.621 204.007C147.118 204.409 147.366 204.998 147.366 205.771C147.366 206.514 147.102 207.102 146.574 207.536C146.077 207.938 145.378 208.139 144.477 208.139H131.054C130.432 208.139 129.935 208.34 129.562 208.743C129.221 209.145 129.05 209.702 129.05 210.414V216.868H140.935C141.867 216.868 142.581 217.084 143.078 217.518C143.576 217.92 143.824 218.508 143.824 219.282C143.824 220.025 143.56 220.613 143.032 221.046C142.535 221.449 141.836 221.65 140.935 221.65H129.05V228.8C129.05 229.512 129.221 230.069 129.562 230.471C129.935 230.874 130.432 231.075 131.054 231.075H145.502C146.434 231.075 147.149 231.292 147.646 231.725C148.143 232.127 148.392 232.715 148.392 233.489C148.392 234.232 148.128 234.82 147.599 235.254C147.102 235.656 146.403 235.857 145.502 235.857H130.308Z" fill="#FCFCFC"/>
<path d="M170.109 236.321C169.177 236.321 168.431 236.074 167.872 235.579C167.313 235.083 167.033 234.402 167.033 233.536V205.679C167.033 204.812 167.313 204.131 167.872 203.636C168.431 203.14 169.177 202.893 170.109 202.893C171.01 202.893 171.756 203.14 172.346 203.636C172.937 204.131 173.232 204.812 173.232 205.679V233.536C173.232 234.402 172.937 235.083 172.346 235.579C171.756 236.074 171.01 236.321 170.109 236.321Z" fill="#FCFCFC"/>
<path d="M182.678 236.321C181.746 236.321 181.001 236.074 180.441 235.579C179.882 235.083 179.602 234.402 179.602 233.536V216.032C179.602 211.915 180.892 208.696 183.471 206.375C186.05 204.054 189.623 202.893 194.19 202.893C198.758 202.893 202.331 204.054 204.91 206.375C207.489 208.696 208.778 211.915 208.778 216.032V233.536C208.778 234.402 208.499 235.083 207.94 235.579C207.38 236.074 206.635 236.321 205.702 236.321C204.77 236.321 204.009 236.074 203.419 235.579C202.859 235.052 202.58 234.371 202.58 233.536V215.893C202.58 213.262 201.865 211.25 200.436 209.857C199.007 208.464 196.925 207.768 194.19 207.768C191.456 207.768 189.374 208.464 187.945 209.857C186.516 211.25 185.801 213.262 185.801 215.893V233.536C185.801 234.371 185.506 235.052 184.916 235.579C184.356 236.074 183.611 236.321 182.678 236.321Z" fill="#FCFCFC"/>
<path d="M229.526 236.321C225.89 236.321 222.752 235.625 220.111 234.232C217.501 232.808 215.512 230.843 214.145 228.336C212.778 225.798 212.095 222.888 212.095 219.607C212.095 216.326 212.778 213.432 214.145 210.925C215.512 208.387 217.501 206.421 220.111 205.029C222.752 203.605 225.89 202.893 229.526 202.893C233.161 202.893 236.284 203.605 238.894 205.029C241.535 206.421 243.539 208.387 244.906 210.925C246.273 213.432 246.957 216.326 246.957 219.607C246.957 222.888 246.273 225.798 244.906 228.336C243.539 230.843 241.535 232.808 238.894 234.232C236.284 235.625 233.161 236.321 229.526 236.321ZM229.526 231.446C233.068 231.446 235.818 230.394 237.775 228.289C239.733 226.154 240.711 223.259 240.711 219.607C240.711 215.924 239.686 213.03 237.635 210.925C235.616 208.82 232.757 207.768 229.06 207.768C225.673 207.768 223.032 208.851 221.136 211.018C219.272 213.154 218.34 216.017 218.34 219.607C218.34 223.259 219.319 226.154 221.276 228.289C223.234 230.394 225.983 231.446 229.526 231.446Z" fill="#FCFCFC"/>
<ellipse cx="66.1821" cy="221.929" rx="6.525" ry="6.5" fill="#287BBB"/>
</svg>
