<svg width="41" height="36" viewBox="0 0 41 36" fill="none" xmlns="http://www.w3.org/2000/svg">
<path fill-rule="evenodd" clip-rule="evenodd" d="M36.1953 0V4.8H41V36H0V4.8L8.63242 4.824C16.7844 4.84 17.2809 4.848 17.6973 4.992C17.9375 5.072 18.3539 5.248 18.6182 5.376C18.8824 5.512 19.2188 5.704 19.3629 5.808C19.499 5.912 19.6352 6 19.6592 6C19.6832 6 19.7393 5.864 19.7873 5.696C19.8434 5.536 20.0355 5.096 20.2197 4.72C20.4039 4.344 20.7723 3.752 21.0365 3.4C21.3008 3.048 21.7332 2.568 21.9895 2.328C22.2537 2.088 22.6781 1.744 22.9424 1.56C23.2066 1.368 23.7111 1.072 24.0635 0.896C24.4158 0.72 24.9363 0.504 25.2246 0.408C25.5129 0.32 26.0334 0.192 26.3857 0.128C26.8902 0.04 28.0193 0.016 36.1953 0ZM26.0254 2.68C25.7852 2.76 25.3127 2.96 24.9844 3.128C24.6561 3.296 24.1836 3.608 23.9434 3.816C23.6951 4.024 23.3268 4.4 23.1186 4.64C22.9104 4.88 22.574 5.4 22.3818 5.8C22.1816 6.2 21.9574 6.736 21.8854 7C21.7572 7.44 21.7412 8.224 21.7252 17.024L21.7012 26.56C22.4779 25.904 22.8783 25.592 23.1025 25.44C23.3188 25.288 23.8312 25.016 24.2236 24.824C24.616 24.64 25.3047 24.384 25.7451 24.264L26.5459 24.048L33.793 24V2.4C28.676 2.416 27.0264 2.448 26.8262 2.48C26.626 2.512 26.2656 2.6 26.0254 2.68ZM2.40234 28.8C15.6633 28.8 16.7443 28.816 17.2809 28.928C17.6172 28.992 18.2098 29.2 18.6021 29.384L19.2988 29.72L19.2588 9.56C18.8584 8.72 18.5781 8.32 18.3779 8.12C18.1777 7.92 17.7773 7.64 17.473 7.504L16.9365 7.24L2.41035 7.192L2.40234 28.8ZM36.1953 26.4C27.3307 26.448 26.7301 26.464 26.3057 26.584C26.0414 26.664 25.4809 26.896 25.0645 27.104C24.4078 27.424 24.1836 27.592 23.5029 28.272C23.0625 28.712 22.7342 29.08 22.7822 29.104C22.8223 29.12 23.0785 29.072 23.3428 28.992C23.7832 28.864 24.4318 28.848 31.2064 28.824L38.5977 28.8V7.2H36.1953V26.4ZM2.40234 33.6H19.2188C19.1387 33.328 19.0266 33.072 18.9225 32.864C18.8184 32.656 18.5701 32.32 18.3779 32.12C18.1777 31.928 17.7693 31.648 17.473 31.504L16.9365 31.24L2.40234 31.2V33.6ZM23.4068 31.552C23.1906 31.656 22.8543 31.904 22.6461 32.112C22.4299 32.312 22.1736 32.648 22.0695 32.856C21.9654 33.072 21.8613 33.32 21.8293 33.416L21.7812 33.6H38.5977V31.2C27.5789 31.216 24.2477 31.248 24.0875 31.288C23.9193 31.328 23.615 31.448 23.4068 31.552ZM5.20508 10.4H16.4961V12.8H5.20508V10.4ZM5.20508 15.2H16.4961V17.6H5.20508V15.2ZM5.20508 20H16.4961V22.4H5.20508V20Z" fill="#226AA0"/>
</svg>
