<svg width="33" height="33" viewBox="0 0 33 33" fill="none" xmlns="http://www.w3.org/2000/svg">
<circle cx="16.5" cy="16.5" r="15" fill="#03B595" stroke="#FCFCFC" stroke-width="3"/>
<path d="M14.7008 11.849C17.2778 7.86004 18.4142 6.13316 18.4982 6.07847C18.5663 6.03549 18.6903 6.00033 18.7904 6.00033C18.8984 5.99642 19.0104 6.02768 19.1025 6.08628C19.1825 6.13316 19.2826 6.23865 19.3226 6.3207C19.3666 6.39884 19.3986 6.50823 19.3986 6.56293C19.3986 6.61762 19.0024 8.19603 18.5183 10.0714C18.0341 11.9428 17.6299 13.5173 17.5979 13.654H20.0589C22.4398 13.654 22.5238 13.6579 22.6799 13.7322C22.7866 13.7843 22.8666 13.8624 22.92 13.9666C22.964 14.0525 23 14.1776 23 14.2401C23 14.3065 22.972 14.4159 22.936 14.4862C22.9 14.5526 21.2433 17.1351 19.2585 20.2177C16.2694 24.8553 15.6211 25.8398 15.5011 25.914C15.413 25.9648 15.293 26 15.197 26C15.1009 26 14.9769 25.9648 14.8928 25.914C14.8128 25.8633 14.7128 25.7578 14.6728 25.6796C14.6287 25.5976 14.5967 25.4882 14.5967 25.4335C14.5967 25.3788 14.9929 23.7926 15.4811 21.9094C15.9653 20.0224 16.3694 18.4479 16.3814 18.4127C16.3974 18.3463 16.2614 18.3424 13.9365 18.3424C11.5555 18.3424 11.4715 18.3385 11.3154 18.2642C11.2074 18.2095 11.1274 18.1353 11.0714 18.022C11.0113 17.9009 10.9913 17.8071 11.0033 17.6977C11.0193 17.5727 11.7876 16.3576 14.7008 11.849Z" fill="#FCFCFC"/>
</svg>
