<svg width="56" height="43" viewBox="0 0 56 43" fill="none" xmlns="http://www.w3.org/2000/svg">
<path fill-rule="evenodd" clip-rule="evenodd" d="M27.9065 2.72215e-05C27.9725 -0.0108204 34.3169 3.22177 42.0028 7.18115C49.6996 11.1297 56 14.3948 56 14.4491C56 14.4925 55.2633 14.9047 52.7014 16.2064V30.254L54.3507 33.8121C55.2633 35.7646 56 37.3918 56 37.446C56 37.4894 54.9994 38.6284 53.7899 39.9952C52.5694 41.3512 51.4589 42.5769 51.074 43L48.622 40.2447C47.2696 38.726 46.17 37.4352 46.192 37.3701C46.214 37.305 46.9397 35.7104 49.4027 30.4168V24.2011C49.4027 19.2871 49.3697 18.0071 49.2708 18.0396C49.1938 18.0613 47.7204 18.8098 42.8604 21.3373L42.8054 32.3151H13.1176L13.0626 21.3048L6.54233 17.942C2.9578 16.087 0.01101 14.5358 1.44965e-05 14.4708C-0.010981 14.4057 6.23445 11.1297 13.8873 7.18115C21.5402 3.23262 27.8516 2.72215e-05 27.9065 2.72215e-05ZM7.02613 14.4165C6.99314 14.4491 8.34558 15.1867 10.0169 16.0545L13.0626 17.6491L13.1176 16.4776C15.0308 15.5772 16.0534 15.1325 16.6142 14.9155C17.164 14.6986 18.2085 14.3514 18.9232 14.1345C19.6269 13.9284 20.9244 13.6138 21.8041 13.4402C22.6837 13.2667 23.8932 13.0823 24.4979 13.0172C25.1027 12.9629 26.1363 12.8762 26.807 12.8436C27.4777 12.8002 28.8082 12.8219 29.7758 12.8979C30.7434 12.9629 32.0299 13.0931 32.6346 13.1799C33.2394 13.2667 34.3059 13.4619 34.9986 13.6138C35.6913 13.7765 36.8569 14.0911 37.5826 14.3189C38.3083 14.5467 39.3968 14.9372 40.0016 15.1867C40.6063 15.4253 41.486 15.8267 41.9588 16.0545L42.8054 16.4776C42.8054 17.3779 42.8494 17.5623 42.9484 17.5623C43.0143 17.5623 44.4108 16.8572 46.0271 16.0111C47.6434 15.165 48.9299 14.4382 48.8859 14.4057C48.8419 14.3623 44.1359 11.9324 38.4402 9.00355C32.7336 6.0747 28.0055 3.67737 27.9395 3.67737C27.8626 3.67737 23.1345 6.08554 17.4388 9.02525C11.7542 11.965 7.05911 14.384 7.02613 14.4165ZM24.7179 16.2715C24.1131 16.3257 23.0026 16.5101 22.2439 16.6511C21.4852 16.803 20.1547 17.161 19.2751 17.4539C18.3955 17.7359 17.3949 18.0939 17.054 18.2566L16.4163 18.5386V29.0608H39.6167V18.5386C38.979 18.2674 38.3523 18.0288 37.8025 17.8227C37.2637 17.6166 36.2961 17.3128 35.6584 17.1284C35.0206 16.9549 33.987 16.7162 33.3493 16.5969C32.7116 16.4776 31.777 16.3257 31.2602 16.2606C30.7434 16.2064 29.5339 16.1304 28.5663 16.1087C27.5987 16.087 26.5871 16.087 26.3122 16.1087C26.0373 16.1304 25.3226 16.2064 24.7179 16.2715ZM50.5682 35.7321C50.1064 36.7084 50.0624 36.8386 50.1944 37.0664C50.2714 37.2074 50.5133 37.4894 50.7222 37.6955L51.107 38.0643L52.1516 36.8711L51.085 34.6473L50.5682 35.7321Z" fill="#226AA0"/>
</svg>
