<svg width="33" height="33" viewBox="0 0 33 33" fill="none" xmlns="http://www.w3.org/2000/svg">
<circle cx="16.5" cy="16.5" r="15" fill="#FF9B0C" stroke="#FCFCFC" stroke-width="3"/>
<path d="M11.9291 21.2799C11.6291 21.2799 11.2591 21.1849 10.8191 20.9949C10.3891 20.8049 9.87905 20.5499 9.28905 20.2299L8.98905 20.0649L8.56905 19.8399C7.68905 19.3799 7.03905 19.0199 6.61905 18.7599C6.19905 18.4899 5.86905 18.1999 5.62905 17.8899C5.39905 17.5699 5.28405 17.1949 5.28405 16.7649C5.28405 16.3349 5.39905 15.9649 5.62905 15.6549C5.86905 15.3349 6.19905 15.0449 6.61905 14.7849C7.03905 14.5149 7.68905 14.1499 8.56905 13.6899L8.98905 13.4649L9.28905 13.2999C9.87905 12.9799 10.3891 12.7249 10.8191 12.5349C11.2591 12.3449 11.6291 12.2499 11.9291 12.2499C12.3091 12.2499 12.6191 12.3749 12.8591 12.6249C13.1091 12.8649 13.2341 13.1549 13.2341 13.4949C13.2341 13.7449 13.1541 13.9899 12.9941 14.2299C12.8441 14.4599 12.6191 14.6499 12.3191 14.7999L8.40405 16.7649L12.3191 18.7299C12.6191 18.8799 12.8441 19.0699 12.9941 19.2999C13.1441 19.5199 13.2191 19.7549 13.2191 20.0049C13.2191 20.3449 13.0941 20.6449 12.8441 20.9049C12.6041 21.1549 12.2991 21.2799 11.9291 21.2799ZM15.3243 16.5849C15.3543 16.4849 15.4043 16.2849 15.4743 15.9849C15.8043 14.7149 16.0843 13.7199 16.3143 12.9999C16.5543 12.2699 16.8243 11.6649 17.1243 11.1849C17.4343 10.7049 17.7793 10.4649 18.1593 10.4649C18.5193 10.4649 18.7843 10.5949 18.9543 10.8549C19.1343 11.1149 19.2243 11.4299 19.2243 11.7999C19.2243 12.1799 19.1343 12.7749 18.9543 13.5849C18.7843 14.3849 18.4793 15.6249 18.0393 17.3049C17.5893 19.0149 17.2393 20.2649 16.9893 21.0549C16.7393 21.8449 16.4843 22.4349 16.2243 22.8249C15.9743 23.2149 15.6743 23.4099 15.3243 23.4099C15.0143 23.4099 14.7493 23.3049 14.5293 23.0949C14.3193 22.8949 14.2143 22.5449 14.2143 22.0449C14.2143 21.5549 14.2993 20.8899 14.4693 20.0499C14.6493 19.2099 14.9343 18.0549 15.3243 16.5849ZM21.5012 21.2799C21.1312 21.2799 20.8212 21.1549 20.5712 20.9049C20.3312 20.6449 20.2112 20.3449 20.2112 20.0049C20.2112 19.7549 20.2862 19.5199 20.4362 19.2999C20.5862 19.0699 20.8112 18.8799 21.1112 18.7299L25.0262 16.7649L21.1112 14.7999C20.8112 14.6499 20.5812 14.4599 20.4212 14.2299C20.2712 13.9899 20.1962 13.7449 20.1962 13.4949C20.1962 13.1549 20.3162 12.8649 20.5562 12.6249C20.8062 12.3749 21.1212 12.2499 21.5012 12.2499C21.8012 12.2499 22.1662 12.3449 22.5962 12.5349C23.0362 12.7249 23.5512 12.9799 24.1412 13.2999L24.4412 13.4649L24.8612 13.6899C25.7412 14.1499 26.3912 14.5149 26.8112 14.7849C27.2312 15.0449 27.5562 15.3349 27.7862 15.6549C28.0262 15.9649 28.1462 16.3349 28.1462 16.7649C28.1462 17.1949 28.0262 17.5699 27.7862 17.8899C27.5562 18.1999 27.2312 18.4899 26.8112 18.7599C26.3912 19.0199 25.7412 19.3799 24.8612 19.8399L24.4412 20.0649L24.1412 20.2299C23.5512 20.5499 23.0362 20.8049 22.5962 20.9949C22.1662 21.1849 21.8012 21.2799 21.5012 21.2799Z" fill="#FCFCFC"/>
</svg>
